<?xml version="1.0" encoding="utf-8"?>
<!-- Generator: Adobe Illustrator 13.0.2, SVG Export Plug-In . SVG Version: 6.00 Build 14948)  -->
<!DOCTYPE svg PUBLIC "-//W3C//DTD SVG 1.0//EN" "http://www.w3.org/TR/2001/REC-SVG-20010904/DTD/svg10.dtd">
<svg version="1.0" id="Layer_1" xmlns="http://www.w3.org/2000/svg" xmlns:xlink="http://www.w3.org/1999/xlink" x="0px" y="0px"
	 width="64px" height="64px" viewBox="-862.001 864 64 64" enable-background="new -862.001 864 64 64" xml:space="preserve">
<g>
	<circle fill="#FFFFFF" cx="31.565" cy="31.288" r="29.013"/>
	<g>
		<path d="M31.444-0.5c8.952,0,16.532,3.105,22.743,9.315c6.207,6.172,9.314,13.731,9.314,22.685c0,8.954-3.049,16.457-9.145,22.514
			C47.918,60.338,40.28,63.5,31.443,63.5c-8.649,0-16.153-3.143-22.514-9.43C2.644,47.786-0.5,40.262-0.5,31.501
			c0-8.723,3.144-16.285,9.429-22.685C15.14,2.605,22.645-0.5,31.444-0.5z M31.56,5.272c-7.275,0-13.429,2.57-18.458,7.715
			C7.882,18.283,5.273,24.454,5.273,31.5c0,7.125,2.59,13.257,7.77,18.4c5.181,5.182,11.352,7.771,18.515,7.771
			c7.123,0,13.332-2.608,18.627-7.828c5.029-4.876,7.543-10.989,7.543-18.343c0-7.312-2.553-13.485-7.656-18.513
			C45.005,7.842,38.834,5.272,31.56,5.272z M43.617,23.956v5.486H20.36v-5.486H43.617z M43.617,34.243v5.481H20.36v-5.481H43.617z"
			/>
	</g>
</g>
</svg>
